<mxfile host="Electron" agent="Mozilla/5.0 (Windows NT 10.0; Win64; x64) AppleWebKit/537.36 (KHTML, like Gecko) draw.io/24.7.17 Chrome/128.0.6613.36 Electron/32.0.1 Safari/537.36" version="24.7.17">
  <diagram name="Page-1" id="FnIrd4mXn_WqoMK3OYnj">
    <mxGraphModel dx="988" dy="578" grid="1" gridSize="10" guides="1" tooltips="1" connect="1" arrows="1" fold="1" page="1" pageScale="1" pageWidth="850" pageHeight="1100" math="0" shadow="0">
      <root>
        <mxCell id="0" />
        <mxCell id="1" parent="0" />
        <mxCell id="Vkxum397_DlVcUG3x1YY-32" value="" style="rounded=1;whiteSpace=wrap;html=1;fillColor=none;dashed=1;" parent="1" vertex="1">
          <mxGeometry x="350" y="150" width="400" height="190" as="geometry" />
        </mxCell>
        <mxCell id="Vkxum397_DlVcUG3x1YY-31" value="" style="rounded=1;whiteSpace=wrap;html=1;fillColor=none;dashed=1;" parent="1" vertex="1">
          <mxGeometry x="50" y="150" width="290" height="190" as="geometry" />
        </mxCell>
        <mxCell id="Vkxum397_DlVcUG3x1YY-22" value="" style="rounded=0;whiteSpace=wrap;html=1;dashed=1;fillColor=none;" parent="1" vertex="1">
          <mxGeometry x="390" y="190" width="260" height="70" as="geometry" />
        </mxCell>
        <mxCell id="Vkxum397_DlVcUG3x1YY-18" value="x1" style="text;html=1;align=left;verticalAlign=middle;whiteSpace=wrap;rounded=0;" parent="1" vertex="1">
          <mxGeometry x="80" y="150" width="230" height="30" as="geometry" />
        </mxCell>
        <mxCell id="Vkxum397_DlVcUG3x1YY-19" value="" style="rounded=0;whiteSpace=wrap;html=1;dashed=1;fillColor=none;" parent="1" vertex="1">
          <mxGeometry x="90" y="190" width="150" height="40" as="geometry" />
        </mxCell>
        <mxCell id="Vkxum397_DlVcUG3x1YY-4" value="" style="rounded=1;whiteSpace=wrap;html=1;" parent="1" vertex="1">
          <mxGeometry x="90" y="205" width="150" height="10" as="geometry" />
        </mxCell>
        <mxCell id="Vkxum397_DlVcUG3x1YY-5" value="" style="rounded=1;whiteSpace=wrap;html=1;" parent="1" vertex="1">
          <mxGeometry x="200" y="190" width="10" height="40" as="geometry" />
        </mxCell>
        <mxCell id="Vkxum397_DlVcUG3x1YY-8" value="" style="rounded=1;whiteSpace=wrap;html=1;" parent="1" vertex="1">
          <mxGeometry x="390" y="215.5" width="255" height="17" as="geometry" />
        </mxCell>
        <mxCell id="Vkxum397_DlVcUG3x1YY-9" value="" style="rounded=1;whiteSpace=wrap;html=1;" parent="1" vertex="1">
          <mxGeometry x="577" y="190" width="17" height="68" as="geometry" />
        </mxCell>
        <mxCell id="Vkxum397_DlVcUG3x1YY-10" value="" style="shape=partialRectangle;whiteSpace=wrap;html=1;top=0;bottom=0;fillColor=none;dashed=1;" parent="1" vertex="1">
          <mxGeometry x="90" y="230" width="150" height="50" as="geometry" />
        </mxCell>
        <mxCell id="Vkxum397_DlVcUG3x1YY-11" value="" style="endArrow=classic;startArrow=classic;html=1;rounded=0;exitX=0;exitY=0.75;exitDx=0;exitDy=0;entryX=1;entryY=0.75;entryDx=0;entryDy=0;" parent="1" edge="1">
          <mxGeometry width="50" height="50" relative="1" as="geometry">
            <mxPoint x="90" y="240" as="sourcePoint" />
            <mxPoint x="240" y="240" as="targetPoint" />
          </mxGeometry>
        </mxCell>
        <mxCell id="Vkxum397_DlVcUG3x1YY-12" value="Base: 15&lt;div&gt;Actual: 15&lt;/div&gt;" style="text;html=1;align=center;verticalAlign=middle;whiteSpace=wrap;rounded=0;" parent="1" vertex="1">
          <mxGeometry x="90" y="240" width="150" height="40" as="geometry" />
        </mxCell>
        <mxCell id="Vkxum397_DlVcUG3x1YY-14" value="" style="shape=partialRectangle;whiteSpace=wrap;html=1;top=0;bottom=0;fillColor=none;dashed=1;direction=south;" parent="1" vertex="1">
          <mxGeometry x="240" y="190" width="50" height="40" as="geometry" />
        </mxCell>
        <mxCell id="Vkxum397_DlVcUG3x1YY-15" value="Base: 4&lt;div&gt;Actual: 4&lt;/div&gt;" style="text;html=1;align=center;verticalAlign=middle;whiteSpace=wrap;rounded=0;" parent="1" vertex="1">
          <mxGeometry x="250" y="190" width="70" height="40" as="geometry" />
        </mxCell>
        <mxCell id="Vkxum397_DlVcUG3x1YY-16" value="" style="endArrow=classic;startArrow=classic;html=1;rounded=0;" parent="1" edge="1">
          <mxGeometry width="50" height="50" relative="1" as="geometry">
            <mxPoint x="250" y="230" as="sourcePoint" />
            <mxPoint x="250" y="190" as="targetPoint" />
          </mxGeometry>
        </mxCell>
        <mxCell id="Vkxum397_DlVcUG3x1YY-21" value="x1.7" style="text;html=1;align=left;verticalAlign=middle;whiteSpace=wrap;rounded=0;" parent="1" vertex="1">
          <mxGeometry x="380" y="150" width="340" height="30" as="geometry" />
        </mxCell>
        <mxCell id="Vkxum397_DlVcUG3x1YY-23" value="" style="shape=partialRectangle;whiteSpace=wrap;html=1;top=0;bottom=0;fillColor=none;dashed=1;direction=south;" parent="1" vertex="1">
          <mxGeometry x="650" y="190" width="50" height="70" as="geometry" />
        </mxCell>
        <mxCell id="Vkxum397_DlVcUG3x1YY-24" value="Base: 4&lt;div&gt;Actual: 7&lt;/div&gt;" style="text;html=1;align=center;verticalAlign=middle;whiteSpace=wrap;rounded=0;" parent="1" vertex="1">
          <mxGeometry x="660" y="190" width="70" height="70" as="geometry" />
        </mxCell>
        <mxCell id="Vkxum397_DlVcUG3x1YY-25" value="" style="endArrow=classic;startArrow=classic;html=1;rounded=0;" parent="1" edge="1">
          <mxGeometry width="50" height="50" relative="1" as="geometry">
            <mxPoint x="660" y="260" as="sourcePoint" />
            <mxPoint x="660" y="190" as="targetPoint" />
          </mxGeometry>
        </mxCell>
        <mxCell id="Vkxum397_DlVcUG3x1YY-26" value="" style="shape=partialRectangle;whiteSpace=wrap;html=1;top=0;bottom=0;fillColor=none;dashed=1;" parent="1" vertex="1">
          <mxGeometry x="390" y="260" width="260" height="50" as="geometry" />
        </mxCell>
        <mxCell id="Vkxum397_DlVcUG3x1YY-27" value="" style="endArrow=classic;startArrow=classic;html=1;rounded=0;exitX=0;exitY=0.75;exitDx=0;exitDy=0;" parent="1" edge="1">
          <mxGeometry width="50" height="50" relative="1" as="geometry">
            <mxPoint x="390" y="270" as="sourcePoint" />
            <mxPoint x="650" y="270" as="targetPoint" />
          </mxGeometry>
        </mxCell>
        <mxCell id="Vkxum397_DlVcUG3x1YY-28" value="Base: 15&lt;div&gt;Actual: 26&lt;/div&gt;" style="text;html=1;align=center;verticalAlign=middle;whiteSpace=wrap;rounded=0;" parent="1" vertex="1">
          <mxGeometry x="390" y="270" width="260" height="40" as="geometry" />
        </mxCell>
        <mxCell id="Vkxum397_DlVcUG3x1YY-29" value="0" style="text;html=1;align=center;verticalAlign=middle;whiteSpace=wrap;rounded=0;fontSize=10;" parent="1" vertex="1">
          <mxGeometry x="80" y="180" width="10" height="10" as="geometry" />
        </mxCell>
        <mxCell id="Vkxum397_DlVcUG3x1YY-30" value="0" style="text;html=1;align=center;verticalAlign=middle;whiteSpace=wrap;rounded=0;fontSize=10;" parent="1" vertex="1">
          <mxGeometry x="380" y="180" width="10" height="10" as="geometry" />
        </mxCell>
      </root>
    </mxGraphModel>
  </diagram>
</mxfile>
